<?xml version="1.0" encoding="UTF-8" standalone="no"?>
<svg width="47px" height="58px" viewBox="0 0 47 58" version="1.1" xmlns="http://www.w3.org/2000/svg" xmlns:xlink="http://www.w3.org/1999/xlink" xmlns:sketch="http://www.bohemiancoding.com/sketch/ns">
    <!-- Generator: Sketch 3.0.4 (8054) - http://www.bohemiancoding.com/sketch -->
    <title>Group</title>
    <desc>Created with Sketch.</desc>
    <defs>
        <rect id="path-1" x="0" y="0" width="44.6929323" height="12.7694092" rx="8"></rect>
        <rect id="path-3" x="22.4616418" y="0" width="22.3845626" height="12.7694092" rx="8"></rect>
    </defs>
    <g id="Welcome" stroke="none" stroke-width="1" fill="none" fill-rule="evenodd" sketch:type="MSPage">
        <g id="Home" sketch:type="MSArtboardGroup" transform="translate(-798.000000, -747.000000)">
            <g id="Group" sketch:type="MSLayerGroup" transform="translate(220.000000, 709.000000)">
                <g id="Imported-Layers-+-Group" transform="translate(538.000000, 1.000000)">
                    <g id="Group" transform="translate(40.902723, 37.117080)">
                        <rect id="Rectangle-97" fill="#FDD77A" sketch:type="MSShapeGroup" x="0" y="0" width="44.6929323" height="12.7694092" rx="8"></rect>
                        <rect id="Rectangle-97" fill="#F2EEE3" sketch:type="MSShapeGroup" transform="translate(22.072105, 36.072105) scale(1, -1) translate(-22.072105, -36.072105) " x="2" y="16" width="40.3397246" height="39.7592969" rx="8"></rect>
                        <path d="M22.4616418,16.1442109 L22.4616418,55.9035079 L42.1659415,55.9035079 L42.1659415,20.1385249 C42.1659415,17.9325262 40.3825636,16.1442109 38.1666132,16.1442109 L22.4616418,16.1442109 Z" id="Rectangle-98" fill="#FFFFFF" sketch:type="MSShapeGroup" transform="translate(32.230821, 36.144211) scale(1, -1) translate(-32.230821, -36.144211) "></path>
                        <rect id="Rectangle-101" fill="#664E93" sketch:type="MSShapeGroup" x="11" y="23" width="23.2171077" height="23.2171077"></rect>
                        <path d="M19.9336354,32.7885285 L19.9336354,28 L24.5770569,28 L24.5770569,32.7885285 L29.3655854,32.7885285 L29.3655854,37.43195 L24.5770569,37.43195 L24.5770569,42.2204785 L19.9336354,42.2204785 L19.9336354,37.43195 L15.1451069,37.43195 L15.1451069,32.7885285 L19.9336354,32.7885285 Z" id="Rectangle-100" fill="#FFFFFF" sketch:type="MSShapeGroup"></path>
                        <mask id="mask-2" sketch:name="Rectangle 98" fill="white">
                            <use xlink:href="#path-1"></use>
                        </mask>
                        <use id="Rectangle-98" fill="#F2EEE3" sketch:type="MSShapeGroup" xlink:href="#path-1"></use>
                        <mask id="mask-4" sketch:name="Rectangle 99" fill="white">
                            <use xlink:href="#path-3"></use>
                        </mask>
                        <use id="Rectangle-99" fill="#FFFFFF" sketch:type="MSShapeGroup" xlink:href="#path-3"></use>
                    </g>
                </g>
            </g>
        </g>
    </g>
</svg>