<?xml version="1.0" encoding="UTF-8" standalone="no"?>
<svg width="57px" height="86px" viewBox="0 0 57 86" version="1.1" xmlns="http://www.w3.org/2000/svg" xmlns:xlink="http://www.w3.org/1999/xlink" xmlns:sketch="http://www.bohemiancoding.com/sketch/ns">
    <!-- Generator: Sketch 3.0.4 (8054) - http://www.bohemiancoding.com/sketch -->
    <title>Group</title>
    <desc>Created with Sketch.</desc>
    <defs>
        <path id="path-1" d="M-0.0921818182,16.2604886 C-1.97230682,33.9469148 14.5868125,41.510625 14.5868125,41.510625 L14.5868125,41.510625 C31.8497784,47.0943466 35.9605114,27.897483 35.9605114,27.897483 L35.9605114,27.897483 C40.0693239,0.784505682 19.6356875,0.434982955 19.6356875,0.434982955 L19.6356875,0.434982955 C19.6356875,0.434982955 19.0960398,0.378329545 18.1963068,0.378329545 L18.1963068,0.378329545 C13.9146534,0.378329545 1.45954545,1.64775 -0.0921818182,16.2604886 L-0.0921818182,16.2604886 Z"></path>
        <path id="path-3" d="M9.6224375,9.52545455 C8.54794318,18.1867045 15.4490966,22.5931875 19.5905568,25.7840227 L19.5905568,25.7840227 C19.7269091,25.8896477 19.8632614,25.9703068 20.0005739,26.0605682 L20.0005739,26.0605682 C19.963125,33.7039773 14.1124602,35.4909602 8.96372159,35.3987784 L8.96372159,35.3987784 C1.21276705,35.3987784 -0.0172840909,47.2460625 -0.0172840909,47.2460625 L-0.0172840909,47.2460625 C11.2577045,61.4411023 43.3849886,54.7454375 43.3849886,54.7454375 L43.3849886,54.7454375 C43.3849886,54.7454375 47.4813182,54.3661477 46.1898125,44.5929545 L46.1898125,44.5929545 C45.1431648,36.6720398 37.1627159,36.3167557 34.1696875,36.4646307 L34.1696875,36.4646307 C28.7069545,35.0434943 28.2412443,27.9003636 28.2220398,25.911733 L28.2220398,25.911733 C38.9055284,20.140767 37.6841193,13.1704773 37.6841193,11.0474148 L37.6841193,11.0474148 C37.6841193,8.91859091 29.8611477,6.63901136 29.8611477,6.63901136 L29.8611477,6.63901136 C17.0171477,4.97205682 16.2182386,-0.169 16.2134375,-0.197806818 L16.2134375,-0.197806818 C16.6753068,3.75352841 9.6224375,9.52545455 9.6224375,9.52545455 L9.6224375,9.52545455 Z"></path>
        <path id="path-5" d="M0.845,0.568454545 C0.845,0.568454545 -0.701926136,4.82898295 2.46970455,9.25178977 L2.46970455,9.25178977 C5.63941477,13.6717159 1.99919318,15.3012216 1.99919318,15.3012216 L1.99919318,15.3012216 C8.6929375,16.5821648 11.1607216,11.4631932 11.1607216,11.4631932 L11.1607216,11.4631932 C16.2710511,2.03280114 7.710625,-0.148835227 3.21484091,-0.265022727 L3.21484091,-0.265022727 C3.18219318,-0.265982955 3.15050568,-0.265982955 3.11785795,-0.265982955 L3.11785795,-0.265982955 C1.68135795,-0.265982955 0.845,0.568454545 0.845,0.568454545 L0.845,0.568454545 Z"></path>
    </defs>
    <g id="Welcome" stroke="none" stroke-width="1" fill="none" fill-rule="evenodd" sketch:type="MSPage">
        <g id="Home" sketch:type="MSArtboardGroup" transform="translate(-304.000000, -735.000000)">
            <g id="Group" sketch:type="MSLayerGroup" transform="translate(220.000000, 709.000000)">
                <g id="Imported-Layers" transform="translate(49.000000, 1.000000)">
                    <g id="Group" transform="translate(36.064935, 24.750000)">
                        <g id="Group-24" transform="translate(9.602273, 0.000000)">
                            <mask id="mask-2" sketch:name="Clip 23" fill="white">
                                <use xlink:href="#path-1"></use>
                            </mask>
                            <use id="Clip-23" fill="#660E0E" sketch:type="MSShapeGroup" xlink:href="#path-1"></use>
                            <path d="M-6.22035227,-5.59908523 L42.4852557,-5.59908523 L42.4852557,48.5078011 L-6.22035227,48.5078011 L-6.22035227,-5.59908523 Z" id="Fill-22" fill="#8B839C" sketch:type="MSShapeGroup" mask="url(#mask-2)"></path>
                        </g>
                        <g id="Group-27" transform="translate(3.840909, 9.602273)">
                            <mask id="mask-4" sketch:name="Clip 26" fill="white">
                                <use xlink:href="#path-3"></use>
                            </mask>
                            <use id="Clip-26" fill="#838188" sketch:type="MSShapeGroup" xlink:href="#path-3"></use>
                            <path d="M-5.99565909,-6.17618182 L52.4216875,-6.17618182 L52.4216875,62.3024261 L-5.99565909,62.3024261 L-5.99565909,-6.17618182 Z" id="Fill-25" fill="#FEFEFE" sketch:type="MSShapeGroup" mask="url(#mask-4)"></path>
                        </g>
                        <path d="M35.5191909,50.0771006 C30.5461739,52.626504 26.8483386,54.6737085 26.8483386,54.6737085 C26.7331114,54.6890722 23.0371966,52.6389869 18.0622591,50.0905437 C15.6568898,48.8528108 13.8420602,46.5981972 12.269208,43.9335665 C4.90042386,46.9342767 -0.224309091,53.7989415 -0.224309091,59.787879 C-0.224309091,59.787879 -1.19089614,67.9050015 -0.224309091,72.2285835 C0.742277959,76.5521655 6.98891818,84.7537881 26.8819466,84.356254 C46.7730545,83.9587199 52.61559,75.0670538 53.8057591,72.2285835 C54.9959282,69.3901132 53.8057591,59.787879 53.8057591,59.787879 C53.7692705,53.7845381 48.6819864,46.9073903 41.312242,43.9201233 C39.7413102,46.5981972 37.9264807,48.8528108 35.5191909,50.0771006 Z" id="Fill-32" fill="#664E93" sketch:type="MSShapeGroup"></path>
                        <g id="Group-35" transform="translate(32.647727, 40.329545)">
                            <mask id="mask-6" sketch:name="Clip 34" fill="white">
                                <use xlink:href="#path-5"></use>
                            </mask>
                            <g id="Clip-34"></g>
                            <path d="M-5.50978409,-6.24531818 L18.7157898,-6.24531818 L18.7157898,21.4850852 L-5.50978409,21.4850852 L-5.50978409,-6.24531818 Z" id="Fill-33" fill="#8B839C" sketch:type="MSShapeGroup" mask="url(#mask-6)"></path>
                        </g>
                    </g>
                </g>
            </g>
        </g>
    </g>
</svg>