<?xml version="1.0" encoding="UTF-8" standalone="no"?>
<svg width="45px" height="57px" viewBox="0 0 45 57" version="1.1" xmlns="http://www.w3.org/2000/svg" xmlns:xlink="http://www.w3.org/1999/xlink" xmlns:sketch="http://www.bohemiancoding.com/sketch/ns">
    <!-- Generator: Sketch 3.0.4 (8054) - http://www.bohemiancoding.com/sketch -->
    <title>Group</title>
    <desc>Created with Sketch.</desc>
    <defs></defs>
    <g id="Welcome" stroke="none" stroke-width="1" fill="none" fill-rule="evenodd" sketch:type="MSPage">
        <g id="Home" sketch:type="MSArtboardGroup" transform="translate(-1045.000000, -742.000000)">
            <g id="Group" sketch:type="MSLayerGroup" transform="translate(220.000000, 709.000000)">
                <g id="Imported-Layers" transform="translate(825.518000, 33.000000)" sketch:type="MSShapeGroup">
                    <g id="Group">
                        <path d="M27.2317974,28.9187586 L15.0936149,28.9187586 L15.0936149,13.3406152 L15.1122268,13.3406152 C15.3088653,10.1652666 17.9388049,7.65023524 21.1627061,7.65023524 C24.3866074,7.65023524 27.0165469,10.1652666 27.2131855,13.3406152 L27.2317974,13.3406152 L27.2317974,28.9187586 Z M34.6733124,13.5526288 C34.61424,6.13862692 28.5912738,0.145601624 21.1627061,0.145601624 C13.7341385,0.145601624 7.71117233,6.13862692 7.65209984,13.5526288 L7.64643536,13.5526288 L7.64643536,48.2451727 L34.6789769,48.2451727 L34.6789769,13.5526288 L34.6733124,13.5526288 Z" id="Fill-4" fill="#F0F0F1"></path>
                        <path d="M43.0234109,56.7009543 L0.0623371063,56.7009543 L0.0623371063,22.4996021 L43.0234109,22.4996021 L43.0234109,56.7009543 Z" id="Fill-6" fill="#FEFEFE"></path>
                        <path d="M21.5064595,56.7009543 L0.0623371063,56.7009543 L0.0623371063,22.4996021 L21.5064595,22.4996021 L21.5064595,56.7009543 Z" id="Fill-7" fill="#F2EEE4"></path>
                        <polygon id="Polygon-1" fill="#80D9C2" points="21.5064595 34.6377846 26.0616484 37.2677241 26.0616484 42.5276032 21.5064595 45.1575428 16.9512706 42.5276032 16.9512706 37.2677241 "></polygon>
                    </g>
                </g>
            </g>
        </g>
    </g>
</svg>