<?xml version="1.0" encoding="UTF-8" standalone="no"?>
<svg width="374px" height="55px" viewBox="0 0 374 55" version="1.1" xmlns="http://www.w3.org/2000/svg" xmlns:xlink="http://www.w3.org/1999/xlink" xmlns:sketch="http://www.bohemiancoding.com/sketch/ns">
    <!-- Generator: Sketch 3.0.4 (8053) - http://www.bohemiancoding.com/sketch -->
    <title>logo</title>
    <desc>Created with Sketch.</desc>
    <defs></defs>
    <g id="Page-9" stroke="none" stroke-width="1" fill="none" fill-rule="evenodd" sketch:type="MSPage">
        <g id="Branding-SocialCode-1.1-" sketch:type="MSLayerGroup" transform="translate(1.000000, 1.000000)">
            <g id="logo" sketch:type="MSShapeGroup">
                <path d="M12.5276,49.9424 C15.7276,49.9424 18.2216,49.0094 18.2216,45.9634 C18.2216,43.4744 17.2066,42.0654 11.9056,40.2754 C6.2116,38.3254 2.9416,35.5214 2.9416,30.0614 C2.9416,20.7864 10.5786,17.9824 18.5326,17.9824 C24.9256,17.9824 30.5366,20.0834 30.5366,25.6174 C30.5366,28.5054 28.4356,30.2204 25.7066,30.2204 C23.1286,30.2204 21.3386,28.5824 21.3386,26.3234 C21.3386,24.7614 21.9606,23.4344 23.1286,22.7304 C21.8086,22.1074 20.4056,21.8034 18.8446,21.8034 C15.5686,21.8034 13.3086,22.9714 13.3086,25.6174 C13.3086,27.7194 14.3246,28.8104 18.9196,30.4484 C26.3286,33.0254 28.9816,36.2244 28.9816,41.6774 C28.9816,50.1024 22.1196,53.5294 12.3756,53.5294 C3.8756,53.5294 -0.4914,50.2534 -0.4914,45.8104 C-0.4914,42.6874 1.6166,40.7444 4.4216,40.7444 C7.3866,40.7444 9.1766,42.3834 9.1766,45.2644 C9.1766,46.7504 8.4786,47.9174 7.6976,48.6164 C8.3186,49.3144 10.1086,49.9424 12.5276,49.9424" id="Fill-52" fill="#4EBDCD"></path>
                <path d="M96.6796,21.4091 C91.6136,21.4091 87.8686,28.0371 87.8686,36.3781 C87.8686,43.3161 90.1286,46.8261 95.9746,46.8261 C99.0156,46.8261 101.4336,45.7341 104.4746,42.8521 L106.2706,44.2491 C103.0716,51.1931 97.4596,53.5291 90.5216,53.5291 C81.3236,53.5291 75.0086,47.9181 75.0086,38.5611 C75.0086,25.7771 83.4256,17.9821 96.0576,17.9821 C101.9796,17.9821 107.2046,20.5521 107.2046,26.0051 C107.2046,30.1441 104.3156,32.0101 101.5926,32.0101 C98.3936,32.0101 96.0576,30.2201 96.0576,27.1801 C96.0576,24.6851 97.6126,22.5771 99.4856,21.8801 C98.3936,21.4861 97.6956,21.4091 96.6796,21.4091" id="Fill-54" fill="#4EBDCD"></path>
                <path d="M126.7806,46.1212 C127.5616,46.9782 130.0566,46.8262 131.5416,45.1882 L133.3316,46.9022 C131.3826,51.3452 127.5616,53.5292 122.1846,53.5292 C117.4306,53.5292 114.3896,51.3452 114.2316,47.0542 C114.2316,46.1212 114.2316,45.0302 114.7006,42.5342 L117.7416,24.7612 C116.0276,24.1392 114.3896,24.7612 113.0626,26.2462 L111.4246,24.6092 C112.6756,20.9402 116.4146,17.9822 121.7916,17.9822 C127.0986,17.9822 130.0566,20.2412 130.0566,24.6842 C130.0566,25.5412 129.9036,27.0972 129.5926,28.8932 L126.7806,46.1212 Z" id="Fill-56" fill="#4EBDCD"></path>
                <path d="M158.996,46.75 C157.124,51.27 153.15,53.529 148.313,53.529 C141.768,53.529 137.09,49.708 137.09,40.51 C137.09,27.02 145.9,17.982 157.98,17.982 C160.634,17.982 163.592,18.604 166.322,19.924 L173.025,17.982 L176.224,17.982 L171.469,46.121 C172.25,46.978 174.745,46.827 176.224,45.188 L178.014,46.902 C175.989,51.346 172.25,53.529 166.556,53.529 C162.189,53.529 159.23,51.657 159.307,46.75 L158.996,46.75 Z M162.735,23.434 C161.802,22.501 160.551,22.266 159.459,22.266 C153.924,22.266 149.715,30.372 149.715,39.805 C149.715,43.862 151.043,45.963 153.613,45.963 C156.108,45.963 157.905,44.484 159.459,41.912 L162.735,23.434 Z" id="Fill-58" fill="#4EBDCD"></path>
                <path d="M189.4211,6.9868 L186.2221,3.3998 L186.4571,1.8458 L201.0381,-0.3382 L203.1451,-0.3382 L195.3431,46.1208 C196.1241,46.9778 198.6191,46.8268 200.1041,45.1878 L201.8941,46.9018 C199.8701,51.3458 196.1241,53.5288 190.7481,53.5288 C185.9931,53.5288 182.9521,51.3458 182.7941,47.0548 C182.7941,46.1208 182.7941,45.0298 183.2631,42.5348 L189.4211,6.9868 Z" id="Fill-60" fill="#4EBDCD"></path>
                <path d="M240.5469,21.4091 C235.4809,21.4091 231.7359,28.0371 231.7359,36.3781 C231.7359,43.3161 233.9959,46.8261 239.8419,46.8261 C242.8829,46.8261 245.3019,45.7341 248.3419,42.8521 L250.1379,44.2491 C246.9389,51.1931 241.3269,53.5291 234.3889,53.5291 C225.1909,53.5291 218.8749,47.9181 218.8749,38.5611 C218.8749,25.7771 227.2929,17.9821 239.9249,17.9821 C245.8469,17.9821 251.0719,20.5521 251.0719,26.0051 C251.0719,30.1441 248.1829,32.0101 245.4599,32.0101 C242.2609,32.0101 239.9249,30.2201 239.9249,27.1801 C239.9249,24.6851 241.4789,22.5771 243.3529,21.8801 C242.2609,21.4861 241.5629,21.4091 240.5469,21.4091" id="Fill-62" fill="#4EBDCD"></path>
                <path d="M321.1106,3.4001 L321.4216,1.8451 L335.9206,-0.3379 L338.1036,-0.3379 L330.2326,46.1211 C331.0076,46.9781 333.5016,46.8261 334.9876,45.1881 L336.7776,46.9021 C334.7516,51.3451 331.0076,53.5291 325.3196,53.5291 C320.8766,53.5291 317.9876,51.6571 318.0706,46.7501 L317.7596,46.7501 C315.2646,51.4211 311.6786,53.5291 306.8406,53.5291 C300.2966,53.5291 295.6186,49.7081 295.6186,40.5101 C295.6186,27.0201 304.5046,17.9821 316.5086,17.9821 C318.8506,17.9821 320.7176,18.3691 322.1206,18.9901 L324.3036,6.9871 L321.1106,3.4001 Z M321.2626,23.5171 C320.3306,22.6531 318.7686,22.4251 317.6766,22.4251 C312.3006,22.4251 308.2436,30.4491 308.2436,39.8051 C308.2436,43.8621 309.5706,45.9631 312.1406,45.9631 C314.6366,45.9631 316.6676,44.4081 318.2226,41.8371 L321.2626,23.5171 Z" id="Fill-64" fill="#4EBDCD"></path>
                <path d="M352.7346,38.5612 C352.7346,43.3162 354.9936,46.8262 360.2186,46.8262 C364.0406,46.8262 366.6866,45.4172 369.5746,42.6882 L371.4476,44.2492 C368.1726,51.4982 362.4016,53.5292 355.3876,53.5292 C346.1836,53.5292 339.8736,47.9182 339.8736,38.5612 C339.8736,25.7772 348.2146,17.9822 360.3766,17.9822 C367.5506,17.9822 372.3816,21.0162 372.3816,27.7192 C372.3816,36.3012 364.5856,38.5612 352.7346,38.5612 M352.8106,34.8922 C359.2856,34.8162 362.6366,31.8582 362.6366,25.7012 C362.6366,23.4342 361.7806,22.0312 359.8316,22.0312 C356.1616,22.0312 353.6736,27.1802 352.8106,34.8922" id="Fill-66" fill="#4EBDCD"></path>
                <path d="M53.9058,17.9821 C39.7938,17.9821 33.2498,27.0201 33.2498,38.4021 C33.2498,47.7601 39.4068,53.5291 49.7738,53.5291 C54.0768,53.5291 57.5938,52.6151 60.5258,51.1301 C62.1568,51.7691 66.8638,53.4941 70.2448,53.4941 C70.7588,53.4941 71.2418,53.4541 71.6788,53.3641 C71.6788,53.3641 72.8988,52.8561 71.9838,52.1461 C71.0698,51.4341 66.0938,49.5041 67.7178,44.4261 L67.6868,44.4521 C69.5278,41.2241 70.4348,37.3391 70.4348,33.1021 C70.4348,23.7451 64.3538,17.9821 53.9058,17.9821" id="Fill-68" fill="#99D4DC"></path>
                <path d="M275.2085,17.9821 C261.0965,17.9821 254.5525,27.0201 254.5525,38.4021 C254.5525,40.8851 255.0155,43.0901 255.8405,45.0271 C256.8755,49.6351 252.3435,51.4671 251.4675,52.1461 C250.5535,52.8561 251.7715,53.3641 251.7715,53.3641 C252.2075,53.4541 252.6885,53.4941 253.2005,53.4941 C256.0395,53.4941 259.8215,52.2731 261.9415,51.5011 C264.4355,52.7931 267.4835,53.5291 271.0755,53.5291 C285.1865,53.5291 291.7375,44.5661 291.7375,33.1021 C291.7375,23.7451 285.6565,17.9821 275.2085,17.9821" id="Fill-70" fill="#99D4DC"></path>
                <path d="M45.6575,36.2662 C45.6575,37.8512 44.3735,39.1352 42.7885,39.1352 C41.2035,39.1352 39.9195,37.8512 39.9195,36.2662 C39.9195,34.6812 41.2035,33.3972 42.7885,33.3972 C44.3735,33.3972 45.6575,34.6812 45.6575,36.2662" id="Fill-72" fill="#FFFFFF"></path>
                <path d="M54.3813,36.2662 C54.3813,37.8512 53.0973,39.1352 51.5123,39.1352 C49.9273,39.1352 48.6433,37.8512 48.6433,36.2662 C48.6433,34.6812 49.9273,33.3972 51.5123,33.3972 C53.0973,33.3972 54.3813,34.6812 54.3813,36.2662" id="Fill-74" fill="#FFFFFF"></path>
                <path d="M63.1052,36.2662 C63.1052,37.8512 61.8212,39.1352 60.2362,39.1352 C58.6512,39.1352 57.3672,37.8512 57.3672,36.2662 C57.3672,34.6812 58.6512,33.3972 60.2362,33.3972 C61.8212,33.3972 63.1052,34.6812 63.1052,36.2662" id="Fill-76" fill="#FFFFFF"></path>
                <path d="M125.4604,0.36 C129.4344,0.36 132.3984,3.318 132.3984,7.298 C132.3984,11.12 129.4344,14.084 125.4604,14.084 C121.6394,14.084 118.6744,11.12 118.6744,7.298 C118.6744,3.318 121.6394,0.36 125.4604,0.36" id="Fill-78" fill="#4EBDCD"></path>
                <path d="M266.8518,36.2662 C266.8518,37.8512 265.5678,39.1352 263.9828,39.1352 C262.3978,39.1352 261.1138,37.8512 261.1138,36.2662 C261.1138,34.6812 262.3978,33.3972 263.9828,33.3972 C265.5678,33.3972 266.8518,34.6812 266.8518,36.2662" id="Fill-80" fill="#FFFFFF"></path>
                <path d="M275.5757,36.2662 C275.5757,37.8512 274.2917,39.1352 272.7067,39.1352 C271.1217,39.1352 269.8377,37.8512 269.8377,36.2662 C269.8377,34.6812 271.1217,33.3972 272.7067,33.3972 C274.2917,33.3972 275.5757,34.6812 275.5757,36.2662" id="Fill-82" fill="#FFFFFF"></path>
                <path d="M284.2996,36.2662 C284.2996,37.8512 283.0156,39.1352 281.4306,39.1352 C279.8456,39.1352 278.5616,37.8512 278.5616,36.2662 C278.5616,34.6812 279.8456,33.3972 281.4306,33.3972 C283.0156,33.3972 284.2996,34.6812 284.2996,36.2662" id="Fill-84" fill="#FFFFFF"></path>
            </g>
        </g>
    </g>
</svg>